<mxfile host="app.diagrams.net" modified="2022-09-26T01:06:00.461Z" agent="5.0 (Windows NT 10.0; Win64; x64) AppleWebKit/537.36 (KHTML, like Gecko) Chrome/105.0.0.0 Safari/537.36" etag="mwDxCPfGbDxXjUGkcFer" version="20.2.5" type="github">
  <diagram id="M3pcUj_e8ZGcJJ1h0OU3" name="Página-1">
    <mxGraphModel dx="741" dy="1554" grid="1" gridSize="10" guides="1" tooltips="1" connect="1" arrows="1" fold="1" page="1" pageScale="1" pageWidth="827" pageHeight="1169" math="0" shadow="0">
      <root>
        <mxCell id="0" />
        <mxCell id="1" parent="0" />
        <mxCell id="ld96d70Gmt-_mfUiLXAM-89" style="edgeStyle=orthogonalEdgeStyle;rounded=0;orthogonalLoop=1;jettySize=auto;html=1;endSize=10;endArrow=diamond;endFill=0;" edge="1" parent="1" source="F2yfCua-x1HgIKLivBN5-6" target="F2yfCua-x1HgIKLivBN5-72">
          <mxGeometry relative="1" as="geometry" />
        </mxCell>
        <mxCell id="F2yfCua-x1HgIKLivBN5-6" value="Company" style="swimlane;fontStyle=0;childLayout=stackLayout;horizontal=1;startSize=30;horizontalStack=0;resizeParent=1;resizeParentMax=0;resizeLast=0;collapsible=1;marginBottom=0;" parent="1" vertex="1">
          <mxGeometry x="570" y="185" width="190" height="140" as="geometry" />
        </mxCell>
        <mxCell id="F2yfCua-x1HgIKLivBN5-7" value=" - id: uuid" style="text;strokeColor=none;fillColor=none;align=left;verticalAlign=middle;spacingLeft=4;spacingRight=4;overflow=hidden;points=[[0,0.5],[1,0.5]];portConstraint=eastwest;rotatable=0;" parent="F2yfCua-x1HgIKLivBN5-6" vertex="1">
          <mxGeometry y="30" width="190" height="30" as="geometry" />
        </mxCell>
        <mxCell id="ld96d70Gmt-_mfUiLXAM-1" value=" - name: string" style="text;strokeColor=none;fillColor=none;align=left;verticalAlign=middle;spacingLeft=4;spacingRight=4;overflow=hidden;points=[[0,0.5],[1,0.5]];portConstraint=eastwest;rotatable=0;" vertex="1" parent="F2yfCua-x1HgIKLivBN5-6">
          <mxGeometry y="60" width="190" height="30" as="geometry" />
        </mxCell>
        <mxCell id="F2yfCua-x1HgIKLivBN5-8" value="- certification: boolean" style="text;strokeColor=none;fillColor=none;align=left;verticalAlign=middle;spacingLeft=4;spacingRight=4;overflow=hidden;points=[[0,0.5],[1,0.5]];portConstraint=eastwest;rotatable=0;" parent="F2yfCua-x1HgIKLivBN5-6" vertex="1">
          <mxGeometry y="90" width="190" height="30" as="geometry" />
        </mxCell>
        <mxCell id="ld96d70Gmt-_mfUiLXAM-87" value="- loads: List&lt;Load&gt;" style="text;strokeColor=none;fillColor=none;align=left;verticalAlign=middle;spacingLeft=4;spacingRight=4;overflow=hidden;points=[[0,0.5],[1,0.5]];portConstraint=eastwest;rotatable=0;" vertex="1" parent="F2yfCua-x1HgIKLivBN5-6">
          <mxGeometry y="120" width="190" height="20" as="geometry" />
        </mxCell>
        <mxCell id="F2yfCua-x1HgIKLivBN5-24" value="Load" style="swimlane;fontStyle=0;childLayout=stackLayout;horizontal=1;startSize=30;horizontalStack=0;resizeParent=1;resizeParentMax=0;resizeLast=0;collapsible=1;marginBottom=0;" parent="1" vertex="1">
          <mxGeometry x="870" y="180" width="190" height="120" as="geometry" />
        </mxCell>
        <mxCell id="ld96d70Gmt-_mfUiLXAM-4" value=" - id: uuid" style="text;strokeColor=none;fillColor=none;align=left;verticalAlign=middle;spacingLeft=4;spacingRight=4;overflow=hidden;points=[[0,0.5],[1,0.5]];portConstraint=eastwest;rotatable=0;" vertex="1" parent="F2yfCua-x1HgIKLivBN5-24">
          <mxGeometry y="30" width="190" height="30" as="geometry" />
        </mxCell>
        <mxCell id="F2yfCua-x1HgIKLivBN5-72" value=" - name: string" style="text;strokeColor=none;fillColor=none;align=left;verticalAlign=middle;spacingLeft=4;spacingRight=4;overflow=hidden;points=[[0,0.5],[1,0.5]];portConstraint=eastwest;rotatable=0;" parent="F2yfCua-x1HgIKLivBN5-24" vertex="1">
          <mxGeometry y="60" width="190" height="30" as="geometry" />
        </mxCell>
        <mxCell id="SRt64cAYokg9fVg4joZT-1" value=" - weight: float" style="text;strokeColor=none;fillColor=none;align=left;verticalAlign=middle;spacingLeft=4;spacingRight=4;overflow=hidden;points=[[0,0.5],[1,0.5]];portConstraint=eastwest;rotatable=0;" parent="F2yfCua-x1HgIKLivBN5-24" vertex="1">
          <mxGeometry y="90" width="190" height="30" as="geometry" />
        </mxCell>
        <mxCell id="ld96d70Gmt-_mfUiLXAM-91" style="edgeStyle=orthogonalEdgeStyle;rounded=0;orthogonalLoop=1;jettySize=auto;html=1;endSize=10;endArrow=diamond;endFill=0;" edge="1" parent="1" source="F2yfCua-x1HgIKLivBN5-34" target="F2yfCua-x1HgIKLivBN5-6">
          <mxGeometry relative="1" as="geometry" />
        </mxCell>
        <mxCell id="F2yfCua-x1HgIKLivBN5-34" value="City" style="swimlane;fontStyle=0;childLayout=stackLayout;horizontal=1;startSize=30;horizontalStack=0;resizeParent=1;resizeParentMax=0;resizeLast=0;collapsible=1;marginBottom=0;" parent="1" vertex="1">
          <mxGeometry x="290" y="180" width="170" height="150" as="geometry" />
        </mxCell>
        <mxCell id="ld96d70Gmt-_mfUiLXAM-2" value=" - id: uuid" style="text;strokeColor=none;fillColor=none;align=left;verticalAlign=middle;spacingLeft=4;spacingRight=4;overflow=hidden;points=[[0,0.5],[1,0.5]];portConstraint=eastwest;rotatable=0;" vertex="1" parent="F2yfCua-x1HgIKLivBN5-34">
          <mxGeometry y="30" width="170" height="30" as="geometry" />
        </mxCell>
        <mxCell id="F2yfCua-x1HgIKLivBN5-35" value="- name: string" style="text;strokeColor=none;fillColor=none;align=left;verticalAlign=middle;spacingLeft=4;spacingRight=4;overflow=hidden;points=[[0,0.5],[1,0.5]];portConstraint=eastwest;rotatable=0;" parent="F2yfCua-x1HgIKLivBN5-34" vertex="1">
          <mxGeometry y="60" width="170" height="30" as="geometry" />
        </mxCell>
        <mxCell id="F2yfCua-x1HgIKLivBN5-38" value="- state: string" style="text;strokeColor=none;fillColor=none;align=left;verticalAlign=middle;spacingLeft=4;spacingRight=4;overflow=hidden;points=[[0,0.5],[1,0.5]];portConstraint=eastwest;rotatable=0;" parent="F2yfCua-x1HgIKLivBN5-34" vertex="1">
          <mxGeometry y="90" width="170" height="30" as="geometry" />
        </mxCell>
        <mxCell id="ld96d70Gmt-_mfUiLXAM-90" value="- companies: List&lt;Company&gt;" style="text;strokeColor=none;fillColor=none;align=left;verticalAlign=middle;spacingLeft=4;spacingRight=4;overflow=hidden;points=[[0,0.5],[1,0.5]];portConstraint=eastwest;rotatable=0;" vertex="1" parent="F2yfCua-x1HgIKLivBN5-34">
          <mxGeometry y="120" width="170" height="30" as="geometry" />
        </mxCell>
        <mxCell id="HdKlytza_GGiQgGaJUvl-7" style="edgeStyle=orthogonalEdgeStyle;rounded=0;orthogonalLoop=1;jettySize=auto;html=1;endArrow=diamond;endFill=1;endSize=10;strokeWidth=1;" parent="1" source="F2yfCua-x1HgIKLivBN5-39" target="F2yfCua-x1HgIKLivBN5-24" edge="1">
          <mxGeometry relative="1" as="geometry">
            <Array as="points">
              <mxPoint x="965" y="-55" />
            </Array>
          </mxGeometry>
        </mxCell>
        <mxCell id="ld96d70Gmt-_mfUiLXAM-95" style="edgeStyle=orthogonalEdgeStyle;rounded=0;orthogonalLoop=1;jettySize=auto;html=1;endArrow=diamond;endFill=1;endSize=10;" edge="1" parent="1" source="F2yfCua-x1HgIKLivBN5-39" target="F2yfCua-x1HgIKLivBN5-79">
          <mxGeometry relative="1" as="geometry" />
        </mxCell>
        <mxCell id="F2yfCua-x1HgIKLivBN5-39" value="Freight" style="swimlane;fontStyle=0;childLayout=stackLayout;horizontal=1;startSize=30;horizontalStack=0;resizeParent=1;resizeParentMax=0;resizeLast=0;collapsible=1;marginBottom=0;" parent="1" vertex="1">
          <mxGeometry x="701" y="-115" width="190" height="180" as="geometry" />
        </mxCell>
        <mxCell id="ld96d70Gmt-_mfUiLXAM-5" value=" - id: uuid" style="text;strokeColor=none;fillColor=none;align=left;verticalAlign=middle;spacingLeft=4;spacingRight=4;overflow=hidden;points=[[0,0.5],[1,0.5]];portConstraint=eastwest;rotatable=0;" vertex="1" parent="F2yfCua-x1HgIKLivBN5-39">
          <mxGeometry y="30" width="190" height="30" as="geometry" />
        </mxCell>
        <mxCell id="HdKlytza_GGiQgGaJUvl-16" value="- price: float" style="text;strokeColor=none;fillColor=none;align=left;verticalAlign=middle;spacingLeft=4;spacingRight=4;overflow=hidden;points=[[0,0.5],[1,0.5]];portConstraint=eastwest;rotatable=0;" parent="F2yfCua-x1HgIKLivBN5-39" vertex="1">
          <mxGeometry y="60" width="190" height="30" as="geometry" />
        </mxCell>
        <mxCell id="F2yfCua-x1HgIKLivBN5-60" value="- route: Route" style="text;strokeColor=none;fillColor=none;align=left;verticalAlign=middle;spacingLeft=4;spacingRight=4;overflow=hidden;points=[[0,0.5],[1,0.5]];portConstraint=eastwest;rotatable=0;" parent="F2yfCua-x1HgIKLivBN5-39" vertex="1">
          <mxGeometry y="90" width="190" height="30" as="geometry" />
        </mxCell>
        <mxCell id="HdKlytza_GGiQgGaJUvl-18" value="- load: Load" style="text;strokeColor=none;fillColor=none;align=left;verticalAlign=middle;spacingLeft=4;spacingRight=4;overflow=hidden;points=[[0,0.5],[1,0.5]];portConstraint=eastwest;rotatable=0;" parent="F2yfCua-x1HgIKLivBN5-39" vertex="1">
          <mxGeometry y="120" width="190" height="30" as="geometry" />
        </mxCell>
        <mxCell id="ld96d70Gmt-_mfUiLXAM-8" value=" - createAt: string" style="text;strokeColor=none;fillColor=none;align=left;verticalAlign=middle;spacingLeft=4;spacingRight=4;overflow=hidden;points=[[0,0.5],[1,0.5]];portConstraint=eastwest;rotatable=0;" vertex="1" parent="F2yfCua-x1HgIKLivBN5-39">
          <mxGeometry y="150" width="190" height="30" as="geometry" />
        </mxCell>
        <mxCell id="ld96d70Gmt-_mfUiLXAM-92" style="edgeStyle=orthogonalEdgeStyle;rounded=0;orthogonalLoop=1;jettySize=auto;html=1;endSize=10;exitX=0.237;exitY=1.028;exitDx=0;exitDy=0;exitPerimeter=0;endArrow=diamond;endFill=1;" edge="1" parent="1" source="F2yfCua-x1HgIKLivBN5-84" target="F2yfCua-x1HgIKLivBN5-34">
          <mxGeometry relative="1" as="geometry" />
        </mxCell>
        <mxCell id="ld96d70Gmt-_mfUiLXAM-94" style="edgeStyle=orthogonalEdgeStyle;rounded=0;orthogonalLoop=1;jettySize=auto;html=1;entryX=0.5;entryY=0;entryDx=0;entryDy=0;endSize=10;endArrow=diamond;endFill=1;" edge="1" parent="1" source="F2yfCua-x1HgIKLivBN5-77" target="F2yfCua-x1HgIKLivBN5-6">
          <mxGeometry relative="1" as="geometry">
            <Array as="points">
              <mxPoint x="455" y="140" />
              <mxPoint x="665" y="140" />
            </Array>
          </mxGeometry>
        </mxCell>
        <mxCell id="F2yfCua-x1HgIKLivBN5-77" value="Route" style="swimlane;fontStyle=0;childLayout=stackLayout;horizontal=1;startSize=30;horizontalStack=0;resizeParent=1;resizeParentMax=0;resizeLast=0;collapsible=1;marginBottom=0;" parent="1" vertex="1">
          <mxGeometry x="360" y="-130" width="190" height="210" as="geometry" />
        </mxCell>
        <mxCell id="ld96d70Gmt-_mfUiLXAM-3" value=" - id: uuid" style="text;strokeColor=none;fillColor=none;align=left;verticalAlign=middle;spacingLeft=4;spacingRight=4;overflow=hidden;points=[[0,0.5],[1,0.5]];portConstraint=eastwest;rotatable=0;" vertex="1" parent="F2yfCua-x1HgIKLivBN5-77">
          <mxGeometry y="30" width="190" height="30" as="geometry" />
        </mxCell>
        <mxCell id="CucOphMQl8QsdvXRG6Uy-3" value="- distance: float" style="text;strokeColor=none;fillColor=none;align=left;verticalAlign=middle;spacingLeft=4;spacingRight=4;overflow=hidden;points=[[0,0.5],[1,0.5]];portConstraint=eastwest;rotatable=0;" parent="F2yfCua-x1HgIKLivBN5-77" vertex="1">
          <mxGeometry y="60" width="190" height="30" as="geometry" />
        </mxCell>
        <mxCell id="F2yfCua-x1HgIKLivBN5-79" value="- originCity: City" style="text;strokeColor=none;fillColor=none;align=left;verticalAlign=middle;spacingLeft=4;spacingRight=4;overflow=hidden;points=[[0,0.5],[1,0.5]];portConstraint=eastwest;rotatable=0;" parent="F2yfCua-x1HgIKLivBN5-77" vertex="1">
          <mxGeometry y="90" width="190" height="30" as="geometry" />
        </mxCell>
        <mxCell id="F2yfCua-x1HgIKLivBN5-80" value="- destinationCity: City" style="text;strokeColor=none;fillColor=none;align=left;verticalAlign=middle;spacingLeft=4;spacingRight=4;overflow=hidden;points=[[0,0.5],[1,0.5]];portConstraint=eastwest;rotatable=0;" parent="F2yfCua-x1HgIKLivBN5-77" vertex="1">
          <mxGeometry y="120" width="190" height="30" as="geometry" />
        </mxCell>
        <mxCell id="F2yfCua-x1HgIKLivBN5-83" value="- originCompany: Company" style="text;strokeColor=none;fillColor=none;align=left;verticalAlign=middle;spacingLeft=4;spacingRight=4;overflow=hidden;points=[[0,0.5],[1,0.5]];portConstraint=eastwest;rotatable=0;" parent="F2yfCua-x1HgIKLivBN5-77" vertex="1">
          <mxGeometry y="150" width="190" height="30" as="geometry" />
        </mxCell>
        <mxCell id="F2yfCua-x1HgIKLivBN5-84" value="- destinationCompany: Company" style="text;strokeColor=none;fillColor=none;align=left;verticalAlign=middle;spacingLeft=4;spacingRight=4;overflow=hidden;points=[[0,0.5],[1,0.5]];portConstraint=eastwest;rotatable=0;" parent="F2yfCua-x1HgIKLivBN5-77" vertex="1">
          <mxGeometry y="180" width="190" height="30" as="geometry" />
        </mxCell>
        <mxCell id="HdKlytza_GGiQgGaJUvl-21" style="edgeStyle=orthogonalEdgeStyle;rounded=0;orthogonalLoop=1;jettySize=auto;html=1;entryX=0.5;entryY=0;entryDx=0;entryDy=0;endArrow=diamond;endFill=1;endSize=10;strokeWidth=1;" parent="1" source="HdKlytza_GGiQgGaJUvl-9" target="F2yfCua-x1HgIKLivBN5-39" edge="1">
          <mxGeometry relative="1" as="geometry" />
        </mxCell>
        <mxCell id="HdKlytza_GGiQgGaJUvl-9" value="Job" style="swimlane;fontStyle=0;childLayout=stackLayout;horizontal=1;startSize=30;horizontalStack=0;resizeParent=1;resizeParentMax=0;resizeLast=0;collapsible=1;marginBottom=0;" parent="1" vertex="1">
          <mxGeometry x="701" y="-400" width="190" height="180" as="geometry" />
        </mxCell>
        <mxCell id="ld96d70Gmt-_mfUiLXAM-7" value=" - id: uuid" style="text;strokeColor=none;fillColor=none;align=left;verticalAlign=middle;spacingLeft=4;spacingRight=4;overflow=hidden;points=[[0,0.5],[1,0.5]];portConstraint=eastwest;rotatable=0;" vertex="1" parent="HdKlytza_GGiQgGaJUvl-9">
          <mxGeometry y="30" width="190" height="30" as="geometry" />
        </mxCell>
        <mxCell id="HdKlytza_GGiQgGaJUvl-10" value="- status: string" style="text;strokeColor=none;fillColor=none;align=left;verticalAlign=middle;spacingLeft=4;spacingRight=4;overflow=hidden;points=[[0,0.5],[1,0.5]];portConstraint=eastwest;rotatable=0;" parent="HdKlytza_GGiQgGaJUvl-9" vertex="1">
          <mxGeometry y="60" width="190" height="30" as="geometry" />
        </mxCell>
        <mxCell id="HdKlytza_GGiQgGaJUvl-15" value="- driver: Driver" style="text;strokeColor=none;fillColor=none;align=left;verticalAlign=middle;spacingLeft=4;spacingRight=4;overflow=hidden;points=[[0,0.5],[1,0.5]];portConstraint=eastwest;rotatable=0;" parent="HdKlytza_GGiQgGaJUvl-9" vertex="1">
          <mxGeometry y="90" width="190" height="30" as="geometry" />
        </mxCell>
        <mxCell id="HdKlytza_GGiQgGaJUvl-11" value="- freight: Freight" style="text;strokeColor=none;fillColor=none;align=left;verticalAlign=middle;spacingLeft=4;spacingRight=4;overflow=hidden;points=[[0,0.5],[1,0.5]];portConstraint=eastwest;rotatable=0;" parent="HdKlytza_GGiQgGaJUvl-9" vertex="1">
          <mxGeometry y="120" width="190" height="30" as="geometry" />
        </mxCell>
        <mxCell id="ld96d70Gmt-_mfUiLXAM-9" value=" - createAt: string" style="text;strokeColor=none;fillColor=none;align=left;verticalAlign=middle;spacingLeft=4;spacingRight=4;overflow=hidden;points=[[0,0.5],[1,0.5]];portConstraint=eastwest;rotatable=0;" vertex="1" parent="HdKlytza_GGiQgGaJUvl-9">
          <mxGeometry y="150" width="190" height="30" as="geometry" />
        </mxCell>
        <mxCell id="HdKlytza_GGiQgGaJUvl-19" style="edgeStyle=orthogonalEdgeStyle;rounded=0;orthogonalLoop=1;jettySize=auto;html=1;entryX=1;entryY=0.5;entryDx=0;entryDy=0;endArrow=block;endFill=0;endSize=10;strokeWidth=1;" parent="1" source="HdKlytza_GGiQgGaJUvl-12" target="HdKlytza_GGiQgGaJUvl-15" edge="1">
          <mxGeometry relative="1" as="geometry" />
        </mxCell>
        <mxCell id="HdKlytza_GGiQgGaJUvl-12" value="Driver" style="swimlane;fontStyle=0;childLayout=stackLayout;horizontal=1;startSize=30;horizontalStack=0;resizeParent=1;resizeParentMax=0;resizeLast=0;collapsible=1;marginBottom=0;" parent="1" vertex="1">
          <mxGeometry x="1000" y="-340" width="190" height="90" as="geometry" />
        </mxCell>
        <mxCell id="ld96d70Gmt-_mfUiLXAM-6" value=" - id: uuid" style="text;strokeColor=none;fillColor=none;align=left;verticalAlign=middle;spacingLeft=4;spacingRight=4;overflow=hidden;points=[[0,0.5],[1,0.5]];portConstraint=eastwest;rotatable=0;" vertex="1" parent="HdKlytza_GGiQgGaJUvl-12">
          <mxGeometry y="30" width="190" height="30" as="geometry" />
        </mxCell>
        <mxCell id="HdKlytza_GGiQgGaJUvl-13" value="- name: string" style="text;strokeColor=none;fillColor=none;align=left;verticalAlign=middle;spacingLeft=4;spacingRight=4;overflow=hidden;points=[[0,0.5],[1,0.5]];portConstraint=eastwest;rotatable=0;" parent="HdKlytza_GGiQgGaJUvl-12" vertex="1">
          <mxGeometry y="60" width="190" height="30" as="geometry" />
        </mxCell>
        <mxCell id="HdKlytza_GGiQgGaJUvl-30" value="1" style="text;html=1;strokeColor=none;fillColor=none;align=center;verticalAlign=middle;whiteSpace=wrap;rounded=0;" parent="1" vertex="1">
          <mxGeometry x="554" y="-53" width="20" height="10" as="geometry" />
        </mxCell>
        <mxCell id="HdKlytza_GGiQgGaJUvl-31" value="0..*" style="text;html=1;strokeColor=none;fillColor=none;align=center;verticalAlign=middle;whiteSpace=wrap;rounded=0;" parent="1" vertex="1">
          <mxGeometry x="666" y="-53" width="20" height="10" as="geometry" />
        </mxCell>
        <mxCell id="HdKlytza_GGiQgGaJUvl-32" value="1" style="text;html=1;strokeColor=none;fillColor=none;align=center;verticalAlign=middle;whiteSpace=wrap;rounded=0;" parent="1" vertex="1">
          <mxGeometry x="777" y="-138" width="20" height="10" as="geometry" />
        </mxCell>
        <mxCell id="HdKlytza_GGiQgGaJUvl-33" value="0..*" style="text;html=1;strokeColor=none;fillColor=none;align=center;verticalAlign=middle;whiteSpace=wrap;rounded=0;" parent="1" vertex="1">
          <mxGeometry x="904" y="-310" width="20" height="10" as="geometry" />
        </mxCell>
        <mxCell id="HdKlytza_GGiQgGaJUvl-34" value="0..1" style="text;html=1;strokeColor=none;fillColor=none;align=center;verticalAlign=middle;whiteSpace=wrap;rounded=0;" parent="1" vertex="1">
          <mxGeometry x="978" y="-310" width="20" height="10" as="geometry" />
        </mxCell>
        <mxCell id="HdKlytza_GGiQgGaJUvl-45" value="1" style="text;html=1;strokeColor=none;fillColor=none;align=center;verticalAlign=middle;whiteSpace=wrap;rounded=0;" parent="1" vertex="1">
          <mxGeometry x="966" y="156" width="20" height="10" as="geometry" />
        </mxCell>
        <mxCell id="HdKlytza_GGiQgGaJUvl-46" value="0..*" style="text;html=1;strokeColor=none;fillColor=none;align=center;verticalAlign=middle;whiteSpace=wrap;rounded=0;" parent="1" vertex="1">
          <mxGeometry x="895" y="-70" width="20" height="10" as="geometry" />
        </mxCell>
      </root>
    </mxGraphModel>
  </diagram>
</mxfile>
